<svg width="24" height="25" viewBox="0 0 24 25" fill="none" xmlns="http://www.w3.org/2000/svg">
<path fill-rule="evenodd" clip-rule="evenodd" d="M17.4178 5.89412C18.3574 6.75235 19.8021 6.67235 20.6447 5.71547L23.6039 8.41805C24.0939 8.86583 24.1349 9.63354 23.6956 10.1328L10.9567 24.5965C10.5174 25.0957 9.76311 25.1375 9.27308 24.6897L6.31438 21.9872C7.15693 21.0303 7.07843 19.5589 6.13884 18.7007C5.19925 17.8424 3.75403 17.9224 2.91147 18.8793L0.396477 16.582C-0.0940406 16.1342 -0.134998 15.3665 0.304809 14.8672L13.0431 0.403547C13.4829 -0.095727 14.2368 -0.137437 14.7273 0.310346L17.2423 2.6075C16.3992 3.56439 16.4777 5.0359 17.4178 5.89412ZM9.68705 5.086L11.3883 6.63998L11.77 6.20685L10.0683 4.65286L9.68705 5.086ZM12.2391 7.41697L13.9403 8.97095L14.3221 8.53782L12.6204 6.98384L12.2391 7.41697ZM16.4924 11.3019L14.7912 9.74794L15.1725 9.31481L16.8741 10.8688L16.4924 11.3019ZM17.3432 12.0789L19.0444 13.6329L19.4262 13.1998L17.725 11.6458L17.3432 12.0789Z" fill="white"/>
</svg>
